<svg version="1.1" id="bottom-bar" x="0" y="0" width="100" height="100" viewBox="0 0 1092 260" space="preserve">
              <path
                fill='#373A50'
                stroke='#373A50'
                d="M30,60h357.3c30.2,0,31,14.4,30,20c0,71.2,58.1,129.6,129.4,130c72.1,0.3,130.6-58,130.6-130C675.7,74.5,689.5,60,706.7,60H1062c0,0,0,0,0,130v94c0,42-34,76-76,76H76c-42,0-76-34-76-76V90C0,73.4,13.4,60,30,60z"
              />
              <circle
                fill='#7EE6D2'
                stroke='#7EE6D2'
                cx="546"
                cy="100"
                r="80"
              />
            </svg>